<mxfile host="app.diagrams.net" modified="2022-03-20T23:28:09.258Z" agent="5.0 (Windows NT 10.0; Win64; x64) AppleWebKit/537.36 (KHTML, like Gecko) Chrome/99.0.4844.74 Safari/537.36" etag="r_sQkgKCLsFmqnTde_Rf" version="17.1.3" type="github">
  <diagram id="C5RBs43oDa-KdzZeNtuy" name="Page-1">
    <mxGraphModel dx="1038" dy="547" grid="1" gridSize="10" guides="1" tooltips="1" connect="1" arrows="1" fold="1" page="1" pageScale="1" pageWidth="827" pageHeight="1169" math="0" shadow="0">
      <root>
        <mxCell id="WIyWlLk6GJQsqaUBKTNV-0" />
        <mxCell id="WIyWlLk6GJQsqaUBKTNV-1" parent="WIyWlLk6GJQsqaUBKTNV-0" />
        <mxCell id="R_5rNcwpgUmmxtOs-XdA-9" style="edgeStyle=orthogonalEdgeStyle;rounded=0;orthogonalLoop=1;jettySize=auto;html=1;exitX=0;exitY=0.5;exitDx=0;exitDy=0;entryX=0.5;entryY=0;entryDx=0;entryDy=0;startArrow=openThin;startFill=0;endArrow=openThin;endFill=0;" edge="1" parent="WIyWlLk6GJQsqaUBKTNV-1" source="R_5rNcwpgUmmxtOs-XdA-0" target="R_5rNcwpgUmmxtOs-XdA-1">
          <mxGeometry relative="1" as="geometry" />
        </mxCell>
        <mxCell id="R_5rNcwpgUmmxtOs-XdA-12" style="edgeStyle=orthogonalEdgeStyle;rounded=0;orthogonalLoop=1;jettySize=auto;html=1;exitX=0.75;exitY=1;exitDx=0;exitDy=0;entryX=0.5;entryY=0;entryDx=0;entryDy=0;startArrow=openThin;startFill=0;endArrow=openThin;endFill=0;" edge="1" parent="WIyWlLk6GJQsqaUBKTNV-1" source="R_5rNcwpgUmmxtOs-XdA-0" target="R_5rNcwpgUmmxtOs-XdA-6">
          <mxGeometry relative="1" as="geometry" />
        </mxCell>
        <mxCell id="R_5rNcwpgUmmxtOs-XdA-13" style="edgeStyle=orthogonalEdgeStyle;rounded=0;orthogonalLoop=1;jettySize=auto;html=1;exitX=1;exitY=0.5;exitDx=0;exitDy=0;entryX=0.5;entryY=0;entryDx=0;entryDy=0;startArrow=openThin;startFill=0;endArrow=openThin;endFill=0;" edge="1" parent="WIyWlLk6GJQsqaUBKTNV-1" source="R_5rNcwpgUmmxtOs-XdA-0" target="R_5rNcwpgUmmxtOs-XdA-7">
          <mxGeometry relative="1" as="geometry">
            <Array as="points">
              <mxPoint x="520" y="95" />
              <mxPoint x="520" y="180" />
              <mxPoint x="665" y="180" />
            </Array>
          </mxGeometry>
        </mxCell>
        <mxCell id="R_5rNcwpgUmmxtOs-XdA-29" style="edgeStyle=orthogonalEdgeStyle;rounded=0;orthogonalLoop=1;jettySize=auto;html=1;exitX=1;exitY=0.25;exitDx=0;exitDy=0;entryX=0;entryY=0.25;entryDx=0;entryDy=0;startArrow=openThin;startFill=0;endArrow=openThin;endFill=0;" edge="1" parent="WIyWlLk6GJQsqaUBKTNV-1" source="R_5rNcwpgUmmxtOs-XdA-0" target="R_5rNcwpgUmmxtOs-XdA-22">
          <mxGeometry relative="1" as="geometry" />
        </mxCell>
        <mxCell id="R_5rNcwpgUmmxtOs-XdA-0" value="Homepage" style="swimlane;" vertex="1" parent="WIyWlLk6GJQsqaUBKTNV-1">
          <mxGeometry x="280" y="40" width="200" height="110" as="geometry" />
        </mxCell>
        <mxCell id="R_5rNcwpgUmmxtOs-XdA-1" value="NPC Homepage" style="swimlane;" vertex="1" parent="WIyWlLk6GJQsqaUBKTNV-1">
          <mxGeometry x="10" y="200" width="170" height="110" as="geometry" />
        </mxCell>
        <mxCell id="R_5rNcwpgUmmxtOs-XdA-5" value="Enemy Homepage" style="swimlane;" vertex="1" parent="WIyWlLk6GJQsqaUBKTNV-1">
          <mxGeometry x="200" y="200" width="170" height="110" as="geometry" />
        </mxCell>
        <mxCell id="R_5rNcwpgUmmxtOs-XdA-6" value="Items Homepage" style="swimlane;" vertex="1" parent="WIyWlLk6GJQsqaUBKTNV-1">
          <mxGeometry x="390" y="200" width="170" height="110" as="geometry" />
        </mxCell>
        <mxCell id="R_5rNcwpgUmmxtOs-XdA-7" value="Weapons Homepage" style="swimlane;" vertex="1" parent="WIyWlLk6GJQsqaUBKTNV-1">
          <mxGeometry x="580" y="200" width="170" height="110" as="geometry" />
        </mxCell>
        <mxCell id="R_5rNcwpgUmmxtOs-XdA-10" style="edgeStyle=orthogonalEdgeStyle;rounded=0;orthogonalLoop=1;jettySize=auto;html=1;exitX=0.25;exitY=1;exitDx=0;exitDy=0;entryX=0.5;entryY=0;entryDx=0;entryDy=0;startArrow=openThin;startFill=0;endArrow=openThin;endFill=0;" edge="1" parent="WIyWlLk6GJQsqaUBKTNV-1" source="R_5rNcwpgUmmxtOs-XdA-0" target="R_5rNcwpgUmmxtOs-XdA-5">
          <mxGeometry relative="1" as="geometry">
            <mxPoint x="290" y="105" as="sourcePoint" />
            <mxPoint x="105" y="210" as="targetPoint" />
          </mxGeometry>
        </mxCell>
        <mxCell id="R_5rNcwpgUmmxtOs-XdA-21" style="edgeStyle=orthogonalEdgeStyle;rounded=0;orthogonalLoop=1;jettySize=auto;html=1;exitX=0.5;exitY=0;exitDx=0;exitDy=0;entryX=0.5;entryY=1;entryDx=0;entryDy=0;startArrow=openThin;startFill=0;endArrow=openThin;endFill=0;" edge="1" parent="WIyWlLk6GJQsqaUBKTNV-1" source="R_5rNcwpgUmmxtOs-XdA-14" target="R_5rNcwpgUmmxtOs-XdA-1">
          <mxGeometry relative="1" as="geometry" />
        </mxCell>
        <mxCell id="R_5rNcwpgUmmxtOs-XdA-31" style="edgeStyle=orthogonalEdgeStyle;rounded=0;orthogonalLoop=1;jettySize=auto;html=1;exitX=0.75;exitY=0;exitDx=0;exitDy=0;startArrow=openThin;startFill=0;endArrow=openThin;endFill=0;" edge="1" parent="WIyWlLk6GJQsqaUBKTNV-1" source="R_5rNcwpgUmmxtOs-XdA-14">
          <mxGeometry relative="1" as="geometry">
            <mxPoint x="138" y="350" as="targetPoint" />
          </mxGeometry>
        </mxCell>
        <mxCell id="R_5rNcwpgUmmxtOs-XdA-14" value="NPC Article" style="swimlane;" vertex="1" parent="WIyWlLk6GJQsqaUBKTNV-1">
          <mxGeometry x="10" y="350" width="170" height="110" as="geometry" />
        </mxCell>
        <mxCell id="R_5rNcwpgUmmxtOs-XdA-32" value="String: Title" style="text;html=1;align=center;verticalAlign=middle;resizable=0;points=[];autosize=1;strokeColor=none;fillColor=none;" vertex="1" parent="R_5rNcwpgUmmxtOs-XdA-14">
          <mxGeometry y="30" width="80" height="20" as="geometry" />
        </mxCell>
        <mxCell id="R_5rNcwpgUmmxtOs-XdA-33" value="String:&amp;nbsp;&lt;span&gt;Stats Information&lt;br&gt;&lt;br&gt;&lt;/span&gt;" style="text;html=1;align=center;verticalAlign=middle;resizable=0;points=[];autosize=1;strokeColor=none;fillColor=none;" vertex="1" parent="R_5rNcwpgUmmxtOs-XdA-14">
          <mxGeometry y="50" width="140" height="30" as="geometry" />
        </mxCell>
        <mxCell id="R_5rNcwpgUmmxtOs-XdA-34" value="String:&amp;nbsp;&lt;span&gt;&lt;br&gt;&lt;/span&gt;" style="text;html=1;align=center;verticalAlign=middle;resizable=0;points=[];autosize=1;strokeColor=none;fillColor=none;" vertex="1" parent="R_5rNcwpgUmmxtOs-XdA-14">
          <mxGeometry x="45" y="75" width="50" height="20" as="geometry" />
        </mxCell>
        <mxCell id="R_5rNcwpgUmmxtOs-XdA-20" style="edgeStyle=orthogonalEdgeStyle;rounded=0;orthogonalLoop=1;jettySize=auto;html=1;exitX=0.5;exitY=0;exitDx=0;exitDy=0;entryX=0.5;entryY=1;entryDx=0;entryDy=0;startArrow=openThin;startFill=0;endArrow=openThin;endFill=0;" edge="1" parent="WIyWlLk6GJQsqaUBKTNV-1" source="R_5rNcwpgUmmxtOs-XdA-15" target="R_5rNcwpgUmmxtOs-XdA-5">
          <mxGeometry relative="1" as="geometry" />
        </mxCell>
        <mxCell id="R_5rNcwpgUmmxtOs-XdA-15" value="Enemy Article" style="swimlane;" vertex="1" parent="WIyWlLk6GJQsqaUBKTNV-1">
          <mxGeometry x="200" y="350" width="170" height="110" as="geometry" />
        </mxCell>
        <mxCell id="R_5rNcwpgUmmxtOs-XdA-19" style="edgeStyle=orthogonalEdgeStyle;rounded=0;orthogonalLoop=1;jettySize=auto;html=1;exitX=0.5;exitY=0;exitDx=0;exitDy=0;entryX=0.5;entryY=1;entryDx=0;entryDy=0;startArrow=openThin;startFill=0;endArrow=openThin;endFill=0;" edge="1" parent="WIyWlLk6GJQsqaUBKTNV-1" source="R_5rNcwpgUmmxtOs-XdA-16" target="R_5rNcwpgUmmxtOs-XdA-6">
          <mxGeometry relative="1" as="geometry" />
        </mxCell>
        <mxCell id="R_5rNcwpgUmmxtOs-XdA-16" value="Items Article" style="swimlane;" vertex="1" parent="WIyWlLk6GJQsqaUBKTNV-1">
          <mxGeometry x="390" y="350" width="170" height="110" as="geometry" />
        </mxCell>
        <mxCell id="R_5rNcwpgUmmxtOs-XdA-18" style="edgeStyle=orthogonalEdgeStyle;rounded=0;orthogonalLoop=1;jettySize=auto;html=1;exitX=0.5;exitY=0;exitDx=0;exitDy=0;entryX=0.5;entryY=1;entryDx=0;entryDy=0;startArrow=openThin;startFill=0;endArrow=openThin;endFill=0;" edge="1" parent="WIyWlLk6GJQsqaUBKTNV-1" source="R_5rNcwpgUmmxtOs-XdA-17" target="R_5rNcwpgUmmxtOs-XdA-7">
          <mxGeometry relative="1" as="geometry" />
        </mxCell>
        <mxCell id="R_5rNcwpgUmmxtOs-XdA-17" value="Weapons Article" style="swimlane;" vertex="1" parent="WIyWlLk6GJQsqaUBKTNV-1">
          <mxGeometry x="580" y="350" width="170" height="110" as="geometry" />
        </mxCell>
        <mxCell id="R_5rNcwpgUmmxtOs-XdA-24" style="edgeStyle=orthogonalEdgeStyle;rounded=0;orthogonalLoop=1;jettySize=auto;html=1;exitX=1;exitY=0.5;exitDx=0;exitDy=0;entryX=1;entryY=0.5;entryDx=0;entryDy=0;startArrow=openThin;startFill=0;endArrow=openThin;endFill=0;" edge="1" parent="WIyWlLk6GJQsqaUBKTNV-1" source="R_5rNcwpgUmmxtOs-XdA-22" target="R_5rNcwpgUmmxtOs-XdA-17">
          <mxGeometry relative="1" as="geometry" />
        </mxCell>
        <mxCell id="R_5rNcwpgUmmxtOs-XdA-26" style="edgeStyle=orthogonalEdgeStyle;rounded=0;orthogonalLoop=1;jettySize=auto;html=1;exitX=1;exitY=0.5;exitDx=0;exitDy=0;entryX=0.5;entryY=1;entryDx=0;entryDy=0;startArrow=openThin;startFill=0;endArrow=openThin;endFill=0;" edge="1" parent="WIyWlLk6GJQsqaUBKTNV-1" source="R_5rNcwpgUmmxtOs-XdA-22" target="R_5rNcwpgUmmxtOs-XdA-16">
          <mxGeometry relative="1" as="geometry" />
        </mxCell>
        <mxCell id="R_5rNcwpgUmmxtOs-XdA-27" style="edgeStyle=orthogonalEdgeStyle;rounded=0;orthogonalLoop=1;jettySize=auto;html=1;exitX=1;exitY=0.5;exitDx=0;exitDy=0;entryX=0.5;entryY=1;entryDx=0;entryDy=0;startArrow=openThin;startFill=0;endArrow=openThin;endFill=0;" edge="1" parent="WIyWlLk6GJQsqaUBKTNV-1" source="R_5rNcwpgUmmxtOs-XdA-22" target="R_5rNcwpgUmmxtOs-XdA-15">
          <mxGeometry relative="1" as="geometry" />
        </mxCell>
        <mxCell id="R_5rNcwpgUmmxtOs-XdA-28" style="edgeStyle=orthogonalEdgeStyle;rounded=0;orthogonalLoop=1;jettySize=auto;html=1;exitX=1;exitY=0.5;exitDx=0;exitDy=0;entryX=0.5;entryY=1;entryDx=0;entryDy=0;startArrow=openThin;startFill=0;endArrow=openThin;endFill=0;" edge="1" parent="WIyWlLk6GJQsqaUBKTNV-1" source="R_5rNcwpgUmmxtOs-XdA-22" target="R_5rNcwpgUmmxtOs-XdA-14">
          <mxGeometry relative="1" as="geometry" />
        </mxCell>
        <mxCell id="R_5rNcwpgUmmxtOs-XdA-22" value="New Page" style="swimlane;" vertex="1" parent="WIyWlLk6GJQsqaUBKTNV-1">
          <mxGeometry x="560" y="40" width="200" height="110" as="geometry" />
        </mxCell>
      </root>
    </mxGraphModel>
  </diagram>
</mxfile>
